# xmcd
#
# Track frame offsets: 
#        150
#        10499
#        32818
#        47938
#        60650
#        76477
#        90252
#        100159
#        112505
#        129972
#        147751
#        161465
#
# Disc length: 2249 seconds
#
# Revision: 0
# Processed by: cddbd v1.5.2PL0 Copyright (c) Steve Scherf et al.
# Submitted via: ExactAudioCopy v1.0b4
#
DISCID=8a08c70c
DTITLE=Flávio Guimarães and Netto Rockfeller - Sound Tracks
DYEAR=2017
DGENRE=Blues
TTITLE0=Approved
TTITLE1=Car Wash
TTITLE2=IE IE IE!
TTITLE3=Blue Tornado
TTITLE4=Tex Mex Rumba
TTITLE5=Doctor Hemp
TTITLE6=Careless Love
TTITLE7=El Gringo
TTITLE8=Tiger Shark
TTITLE9=The Big Boss
TTITLE10=Lost In Jupiter
TTITLE11=Steam Train
EXTD=
EXTT0=
EXTT1=
EXTT2=
EXTT3=
EXTT4=
EXTT5=
EXTT6=
EXTT7=
EXTT8=
EXTT9=
EXTT10=
EXTT11=
PLAYORDER=
